<svg width="84" height="83" viewBox="0 0 84 83" fill="none" xmlns="http://www.w3.org/2000/svg">
<path d="M2.54305 68.0839C3.56396 67.063 4.92288 66.5042 6.37148 66.5042H10.1033V56.7642C10.1033 53.936 12.4073 51.632 15.2355 51.632H20.1469C22.9751 51.632 25.2791 53.936 25.2791 56.7642V66.4973H29.2868V53.46C29.2868 52.6115 29.9767 51.9217 30.8251 51.9217C31.6736 51.9217 32.3634 52.6115 32.3634 53.46V66.4973H41.3792V47.5277C41.3792 46.3964 40.4548 45.472 39.3235 45.472H34.4121C33.2808 45.472 32.3565 46.3964 32.3565 47.5277V48.6934C32.3565 49.5419 31.6667 50.2317 30.8182 50.2317C29.9697 50.2317 29.2799 49.5419 29.2799 48.6934V47.5277C29.2799 44.6995 31.5839 42.3955 34.4121 42.3955H39.3235C42.1517 42.3955 44.4557 44.6995 44.4557 47.5277V66.4973H48.4635V28.8063C48.4635 25.9781 50.7674 23.6742 53.5956 23.6742H58.507C61.3352 23.6742 63.6392 25.9781 63.6392 28.8063V66.4973H67.4538V5.40808C67.4538 2.42812 69.882 0 72.8619 0C74.3105 0 75.6694 0.565641 76.6903 1.58655C77.7113 2.60747 78.2769 3.96639 78.2769 5.41498V10.2781C78.2769 11.1266 77.5871 11.8164 76.7386 11.8164C75.8902 11.8164 75.2004 11.1266 75.2004 10.2781V5.40808C75.2004 4.78036 74.9589 4.19402 74.5175 3.75255C74.076 3.31107 73.4896 3.06964 72.8619 3.06964C71.572 3.06964 70.5304 4.11814 70.5304 5.40808V68.0356C70.5304 68.8841 69.8406 69.5739 68.9921 69.5739H6.36457C5.74375 69.5739 5.15051 69.8153 4.70904 70.2568C4.26756 70.6983 4.02613 71.2846 4.02613 71.9054C4.02613 73.1954 5.07464 74.2439 6.36457 74.2439H68.9921C69.8406 74.2439 70.5304 74.9337 70.5304 75.7821V76.6789C70.5304 77.2997 70.7718 77.8929 71.2133 78.3344C71.6548 78.7759 72.2411 79.0173 72.8619 79.0173C74.1519 79.0173 75.2004 77.9688 75.2004 76.6789V75.7821C75.2004 74.9337 75.8902 74.2439 76.7386 74.2439H77.6354C78.2631 74.2439 78.8494 74.0024 79.2909 73.561C79.7324 73.1195 79.9738 72.5331 79.9738 71.9054C79.9738 70.6155 78.9253 69.5739 77.6354 69.5739H76.7386C75.8902 69.5739 75.2004 68.8841 75.2004 68.0356V15.0033C75.2004 14.1548 75.8902 13.465 76.7386 13.465C77.5871 13.465 78.2769 14.1548 78.2769 15.0033V66.5387C80.974 66.856 83.0435 69.1531 83.0435 71.9054C83.0435 73.354 82.4778 74.7129 81.4569 75.7338C80.5877 76.603 79.4496 77.1479 78.2355 77.2859C77.932 80.0038 75.628 82.087 72.8619 82.087C71.4133 82.087 70.0613 81.5213 69.0335 80.5004C68.1712 79.6381 67.6332 78.5138 67.4883 77.3135H6.36457C3.38461 77.3135 0.95649 74.8854 0.95649 71.9054C0.95649 70.4637 1.52214 69.1048 2.54305 68.0839ZM22.1956 56.7642C22.1956 55.6329 21.2713 54.7085 20.14 54.7085H15.2286C14.0973 54.7085 13.173 55.6329 13.173 56.7642V66.4973H22.1956V56.7642ZM60.5627 28.8063C60.5627 27.675 59.6383 26.7507 58.507 26.7507H53.5956C52.4643 26.7507 51.54 27.675 51.54 28.8063V66.4973H60.5627V28.8063Z" fill="#1ABC0F"/>
<path d="M56.0513 14.1756C55.2236 14.1756 54.3889 13.9962 53.637 13.6444L41.6344 27.9096C42.3035 28.8754 42.6553 30.0066 42.6553 31.1862C42.6553 34.38 40.0616 36.9737 36.8678 36.9737C35.1433 36.9737 33.4878 36.1873 32.391 34.8491L23.4097 38.8293C23.4511 39.1121 23.4718 39.4018 23.4718 39.6846C23.4718 42.8784 20.8781 45.4721 17.6843 45.4721C14.4905 45.4721 11.8968 42.8784 11.8968 39.6846C11.8968 36.4908 14.4905 33.8972 17.6843 33.8972C19.4088 33.8972 21.0643 34.6835 22.1611 36.0218L31.1424 32.0416C31.101 31.7588 31.0803 31.469 31.0803 31.1862C31.0803 27.9924 33.674 25.3987 36.8678 25.3987C37.7094 25.3987 38.5233 25.5781 39.2821 25.9299L51.2848 11.6716C50.6156 10.7059 50.2638 9.57458 50.2638 8.39501C50.2638 5.20121 52.8575 2.60754 56.0513 2.60754C59.2451 2.60754 61.8388 5.20121 61.8388 8.39501C61.8388 11.5819 59.2382 14.1756 56.0513 14.1756ZM39.5787 31.1862C39.5787 29.6893 38.3647 28.4753 36.8678 28.4753C35.3709 28.4753 34.1569 29.6893 34.1569 31.1862C34.1569 32.6831 35.3709 33.8972 36.8678 33.8972C38.3647 33.8972 39.5787 32.6831 39.5787 31.1862ZM58.7623 8.38811C58.7623 6.89123 57.5482 5.67717 56.0513 5.67717C54.5544 5.67717 53.3404 6.89123 53.3404 8.38811C53.3404 9.88499 54.5544 11.0991 56.0513 11.0991C57.5482 11.0991 58.7623 9.88499 58.7623 8.38811ZM20.3952 39.6846C20.3952 38.1878 19.1812 36.9737 17.6843 36.9737C16.1874 36.9737 14.9733 38.1878 14.9733 39.6846C14.9733 41.1815 16.1874 42.3956 17.6843 42.3956C19.1812 42.4025 20.3952 41.1815 20.3952 39.6846Z" fill="#1ABC0F"/>
</svg>
